<?xml version="1.0" encoding="UTF-8" standalone="no"?>
<!-- Created with Inkscape (http://www.inkscape.org/) -->
<svg
   xmlns:dc="http://purl.org/dc/elements/1.1/"
   xmlns:cc="http://web.resource.org/cc/"
   xmlns:rdf="http://www.w3.org/1999/02/22-rdf-syntax-ns#"
   xmlns:svg="http://www.w3.org/2000/svg"
   xmlns="http://www.w3.org/2000/svg"
   xmlns:xlink="http://www.w3.org/1999/xlink"
   xmlns:sodipodi="http://sodipodi.sourceforge.net/DTD/sodipodi-0.dtd"
   xmlns:inkscape="http://www.inkscape.org/namespaces/inkscape"
   width="387.57962"
   height="61.349506"
   id="svg2404"
   sodipodi:version="0.32"
   inkscape:version="0.45.1"
   version="1.0"
   sodipodi:docbase="/home/rpelisse/Desktop/esme-current/tpbuild/docs/img"
   sodipodi:docname="logo-cc.svg"
   inkscape:output_extension="org.inkscape.output.svg.inkscape"
   inkscape:export-filename="/home/rpelisse/Desktop/esme-current/tpbuild/docs/img/logo-cc.png"
   inkscape:export-xdpi="599.95667"
   inkscape:export-ydpi="599.95667">
  <defs
     id="defs2406">
    <linearGradient
       id="linearGradient3640">
      <stop
         id="stop3642"
         offset="0"
         style="stop-color:black;stop-opacity:1" />
      <stop
         id="stop3644"
         offset="1"
         style="stop-color:#fffffd;stop-opacity:0" />
    </linearGradient>
    <radialGradient
       gradientTransform="matrix(-0.698445,0.698434,-0.706585,-0.706586,713.8379,153.4593)"
       gradientUnits="userSpaceOnUse"
       xlink:href="#linearGradient3640"
       id="radialGradient3646"
       fy="130.5105"
       fx="331.55237"
       r="131.92857"
       cy="130.5105"
       cx="331.55237" />
  </defs>
  <sodipodi:namedview
     id="base"
     pagecolor="#ffffff"
     bordercolor="#666666"
     borderopacity="1.0"
     inkscape:pageopacity="0.0"
     inkscape:pageshadow="2"
     inkscape:zoom="1"
     inkscape:cx="247.02461"
     inkscape:cy="45.143778"
     inkscape:document-units="px"
     inkscape:current-layer="layer1"
     width="1052.3622px"
     height="744.09448px"
     inkscape:window-width="828"
     inkscape:window-height="591"
     inkscape:window-x="0"
     inkscape:window-y="0" />
  <metadata
     id="metadata2409">
    <rdf:RDF>
      <cc:Work
         rdf:about="">
        <dc:format>image/svg+xml</dc:format>
        <dc:type
           rdf:resource="http://purl.org/dc/dcmitype/StillImage" />
      </cc:Work>
    </rdf:RDF>
  </metadata>
  <g
     inkscape:label="Calque 1"
     inkscape:groupmode="layer"
     id="layer1"
     transform="translate(-657.84897,-675.73737)">
    <g
       id="g9641"
       transform="matrix(0.71531,0,0,0.748815,820.37119,682.86737)">
      <path
         id="path1334"
         d="M 31.1875,0 C 13.904525,0.43835438 3.7379722e-13,14.612004 0,32 C 2.3684758e-15,49.663996 14.336004,64 32,64 C 49.663996,64 64,49.663996 64,32 C 64,14.336004 49.663996,1.3812956e-13 32,0 C 31.724,3.7007434e-17 31.461833,-0.0069580061 31.1875,0 z M 31.15625,5.5 C 31.439783,5.4910103 31.714297,5.5 32,5.5 C 46.628003,5.4999998 58.5,17.371998 58.5,32 C 58.499998,46.628001 46.628002,58.5 32,58.5 C 17.371999,58.499999 5.5,46.628002 5.5,32 C 5.4999999,17.657701 16.922915,5.9512829 31.15625,5.5 z "
         style="opacity:1;fill:#000000;fill-opacity:1;fill-rule:nonzero;stroke:none;stroke-width:259.50698853;stroke-linecap:butt;stroke-linejoin:round;stroke-miterlimit:4;stroke-dasharray:none;stroke-dashoffset:0;stroke-opacity:1" />
      <path
         transform="matrix(0.997584,0,0,0.997584,28.56276,0.19856)"
         d="M 30.009746 31.878458 A 26.564182 26.564182 0 1 1  -23.118619,31.878458 A 26.564182 26.564182 0 1 1  30.009746 31.878458 z"
         sodipodi:ry="26.564182"
         sodipodi:rx="26.564182"
         sodipodi:cy="31.878458"
         sodipodi:cx="3.4455633"
         id="path1336"
         style="opacity:1;fill:#ffffff;fill-opacity:1;fill-rule:nonzero;stroke:none;stroke-width:259.50698853;stroke-linecap:butt;stroke-linejoin:round;stroke-miterlimit:4;stroke-dasharray:none;stroke-dashoffset:0;stroke-opacity:1"
         sodipodi:type="arc" />
      <path
         sodipodi:nodetypes="cssscssssccscscscscsc"
         id="text1367"
         d="M 25.645354,38.743144 C 27.706139,41.625309 33.995692,41.833441 36.155115,40.6114 C 36.947727,40.162852 37.145708,38.864507 37.145725,37.98432 C 37.145708,37.380283 36.986739,36.905677 36.668816,36.560499 C 36.333199,36.215341 35.479466,35.339232 34.490338,35.080346 C 29.473962,33.785975 25.998702,32.169274 24.638637,30.995688 C 22.942961,29.528736 22.669211,28.570622 22.669213,26.016357 C 22.669211,23.462132 23.403703,21.32133 25.064052,19.785304 C 26.724393,18.24933 29.135426,17.481331 32.297159,17.481304 C 35.317562,17.481331 39.565451,18.278588 41.636566,20.737131 L 38.183516,24.493331 C 36.236051,22.858359 34.787665,22.710631 32.403139,22.710609 C 30.901751,22.710631 30.120168,22.926362 29.484299,23.3578 C 28.848414,23.772024 28.530476,24.315664 28.530483,24.988721 C 28.530476,25.592786 28.821918,26.09328 29.404815,26.490205 C 29.987693,26.904426 31.511133,27.525729 34.549225,28.354116 C 37.958218,29.286087 40.272103,30.416513 41.490888,31.745396 C 42.691968,33.074309 43.292518,34.843296 43.292541,37.052364 C 43.292518,39.710168 42.356366,41.901988 40.484082,43.627827 C 38.629421,45.353671 36.346462,46.694998 33.061111,46.694997 C 28.832157,46.694996 23.187374,45.201054 21.630014,42.439699"
         style="font-size:53.81440353px;font-style:normal;font-variant:normal;font-weight:bold;font-stretch:normal;text-align:start;line-height:100%;writing-mode:lr-tb;text-anchor:start;opacity:1;fill:#000000;fill-opacity:1;stroke:none;stroke-width:1px;stroke-linecap:butt;stroke-linejoin:miter;stroke-opacity:1;font-family:Arial Narrow" />
      <path
         sodipodi:nodetypes="ccccc"
         id="rect2247"
         d="M 12.187615,-70.54866 L 17.990438,-70.507309 L 17.990438,-14.435143 L 12.187615,-14.476494 L 12.187615,-70.54866 z "
         style="opacity:1;fill:#000000;fill-opacity:1;fill-rule:nonzero;stroke:none;stroke-width:259.50698853;stroke-linecap:butt;stroke-linejoin:round;stroke-miterlimit:4;stroke-dashoffset:0;stroke-opacity:1"
         transform="matrix(-0.408348,0.912826,-0.911726,-0.410798,0,0)" />
      <path
         id="rect2278"
         d="M 30.375,12.875 L 30.375,19.71875 L 33.625,19.71875 L 33.625,12.875 L 30.375,12.875 z M 30.375,44.96875 L 30.375,51.125 L 33.625,51.125 L 33.625,44.96875 L 30.375,44.96875 z "
         style="opacity:1;fill:#000000;fill-opacity:1;fill-rule:nonzero;stroke:none;stroke-width:259.50698853;stroke-linecap:butt;stroke-linejoin:round;stroke-miterlimit:4;stroke-dasharray:none;stroke-dashoffset:0;stroke-opacity:1" />
    </g>
    <g
       style="display:inline"
       inkscape:label="Dessin"
       id="layer3"
       transform="matrix(0.732057,0,0,0.765561,767.06719,682.09097)">
      <path
         transform="matrix(0.980769,0,0,0.980769,-0.334829,1.21886)"
         d="M 60.546017 31.384699 A 27.577164 27.577164 0 1 1  5.3916893,31.384699 A 27.577164 27.577164 0 1 1  60.546017 31.384699 z"
         sodipodi:ry="27.577164"
         sodipodi:rx="27.577164"
         sodipodi:cy="31.384699"
         sodipodi:cx="32.968853"
         id="path7255"
         style="opacity:1;fill:#ffffff;fill-opacity:1;fill-rule:evenodd;stroke:none;stroke-width:0.03;stroke-linecap:butt;stroke-linejoin:miter;stroke-miterlimit:4;stroke-dasharray:none;stroke-dashoffset:0;stroke-opacity:1"
         sodipodi:type="arc" />
      <path
         id="path9697"
         d="M 31.1875,0 C 13.904525,0.43835438 3.7379722e-13,14.612004 0,32 C 2.3684758e-15,49.663996 14.336004,64 32,64 C 49.663996,64 64,49.663996 64,32 C 64,14.336004 49.663996,1.3812956e-13 32,0 C 31.724,3.7007434e-17 31.461833,-0.0069580061 31.1875,0 z M 31.15625,5.5 C 31.439783,5.4910103 31.714297,5.5 32,5.5 C 46.628003,5.4999998 58.5,17.371998 58.5,32 C 58.499998,46.628001 46.628002,58.5 32,58.5 C 17.371999,58.499999 5.5,46.628002 5.5,32 C 5.4999999,17.657701 16.922915,5.9512829 31.15625,5.5 z "
         style="opacity:1;fill:#000000;fill-opacity:1;fill-rule:nonzero;stroke:none;stroke-width:259.50698853;stroke-linecap:butt;stroke-linejoin:round;stroke-miterlimit:4;stroke-dasharray:none;stroke-dashoffset:0;stroke-opacity:1" />
      <g
         id="g6525">
        <path
           sodipodi:type="arc"
           style="opacity:1;fill:#000000;fill-opacity:1;fill-rule:evenodd;stroke:none;stroke-width:0.03;stroke-linecap:butt;stroke-linejoin:miter;stroke-miterlimit:4;stroke-dasharray:none;stroke-dashoffset:0;stroke-opacity:1"
           id="path2838"
           sodipodi:cx="32.0625"
           sodipodi:cy="15.75"
           sodipodi:rx="4.625"
           sodipodi:ry="4.625"
           d="M 36.6875 15.75 A 4.625 4.625 0 1 1  27.4375,15.75 A 4.625 4.625 0 1 1  36.6875 15.75 z"
           transform="translate(-6.25e-2,0.185547)" />
        <path
           id="path3572"
           style="opacity:1;fill:#000000;fill-opacity:1;fill-rule:evenodd;stroke:none;stroke-width:1px;stroke-linecap:butt;stroke-linejoin:miter;stroke-opacity:1"
           d="M 27.215125,52.689453 L 36.784875,52.689453 L 36.784875,37.310548 L 39.677883,37.310548 C 39.677883,37.310548 39.676818,26.320181 39.677883,24.590437 C 39.675042,24.134131 39.719076,23.22538 39.057144,22.563448 C 38.395212,21.901516 37.501745,21.941644 37.030154,21.942709 C 36.558564,21.943774 27.441437,21.943774 26.969846,21.942709 C 26.498255,21.941644 25.604789,21.901516 24.942857,22.563448 C 24.280924,23.22538 24.324959,24.134131 24.322118,24.590437 C 24.323183,26.320181 24.322118,37.310548 24.322118,37.310548 L 27.215125,37.310548 L 27.215125,52.689453 z "
           sodipodi:nodetypes="ccccssccssccc" />
      </g>
    </g>
    <text
       xml:space="preserve"
       style="font-size:12px;font-style:normal;font-weight:normal;fill:#000000;fill-opacity:1;stroke:none;font-family:Bitstream Vera Sans"
       x="662.76477"
       y="735.38129"
       id="text9745"><tspan
         sodipodi:role="line"
         id="tspan9747"
         x="662.76477"
         y="735.38129">Romain PELISSE</tspan></text>
    <g
       id="g2792"
       transform="matrix(0.144244,0,0,0.163269,660.97319,679.59197)">
      <path
         id="path3638"
         style="opacity:1;fill:url(#radialGradient3646);fill-opacity:1;fill-rule:evenodd;stroke:none;stroke-width:1px;stroke-linecap:butt;stroke-linejoin:miter;stroke-opacity:1"
         transform="matrix(2.554348,0,0,1.996871,-633.2288,-492.8925)"
         d="M 515.54933,248.36827 C 527.06772,300.28851 505.11514,353.85385 460.21028,383.39814 C 415.30542,412.94243 356.59589,412.4472 312.2127,382.14972 C 267.8295,351.85225 246.81397,297.92446 259.23582,246.20616" />
      <path
         id="text6303"
         style="font-size:14.89831161px;font-style:normal;font-weight:normal;fill:#ffffff;fill-opacity:1;stroke:none;stroke-width:1px;stroke-linecap:butt;stroke-linejoin:miter;stroke-opacity:1;font-family:Verdana"
         transform="translate(-2.902837,6.773292)"
         d="M 314.17463,150.78576 C 304.51394,150.78576 295.59533,149.35994 287.41877,146.50832 C 279.24212,143.65669 272.21489,139.40835 266.33708,133.76328 C 260.45921,128.11823 255.90533,121.07646 252.67544,112.63794 C 249.44553,104.19948 247.83057,94.451573 247.83058,83.394179 C 247.83057,73.093468 249.37278,63.752935 252.45721,55.37255 C 255.54161,46.992351 260.02273,39.805087 265.9006,33.810736 C 271.54564,28.049399 278.54376,23.597369 286.895,20.454632 C 295.24615,17.31215 304.36845,15.740846 314.26192,15.740713 C 319.73231,15.740846 324.66446,16.046377 329.05839,16.657309 C 333.45213,17.268503 337.51134,18.068705 341.23601,19.057915 C 345.13507,20.163778 348.67051,21.400453 351.84233,22.767944 C 355.01392,24.135687 357.79281,25.40146 360.17898,26.565268 L 360.17898,58.078689 L 356.33801,58.078689 C 354.70839,56.682063 352.65697,55.023464 350.18373,53.102885 C 347.71027,51.182497 344.90229,49.291112 341.75978,47.428724 C 338.55887,45.566537 335.09618,43.995233 331.3717,42.714805 C 327.64703,41.434588 323.66058,40.794427 319.41231,40.794319 C 314.69832,40.794427 310.21719,41.536432 305.96892,43.020337 C 301.72051,44.504452 297.79224,46.963253 294.18412,50.396747 C 290.75047,53.714043 287.97159,58.107877 285.84747,63.578261 C 283.72325,69.048814 282.66116,75.683211 282.66121,83.481474 C 282.66116,91.629045 283.81054,98.438032 286.10935,103.90846 C 288.40806,109.37897 291.30334,113.68551 294.79518,116.82809 C 298.34511,120.02892 302.30247,122.31313 306.66727,123.68073 C 311.03194,125.04837 315.33848,125.73218 319.5869,125.73215 C 323.66058,125.73218 327.69068,125.12111 331.67723,123.89896 C 335.6636,122.67686 339.34452,121.01826 342.72002,118.92316 C 345.57155,117.23549 348.21949,115.4314 350.66385,113.51088 C 353.10799,111.59043 355.11577,109.93183 356.68719,108.53508 L 360.17898,108.53508 L 360.17898,139.61203 C 356.91986,141.06695 353.80635,142.43456 350.83844,143.71488 C 347.87031,144.99521 344.7568,146.10094 341.4979,147.03208 C 337.24945,148.25421 333.26299,149.18535 329.53851,149.82552 C 325.81384,150.46568 320.69256,150.78576 314.17463,150.78576 L 314.17463,150.78576 z M 443.7201,150.78576 C 434.05941,150.78576 425.1408,149.35994 416.96424,146.50832 C 408.78759,143.65669 401.76037,139.40835 395.88255,133.76328 C 390.00468,128.11823 385.4508,121.07646 382.22091,112.63794 C 378.991,104.19948 377.37604,94.451573 377.37605,83.394179 C 377.37604,73.093468 378.91825,63.752935 382.00268,55.37255 C 385.08708,46.992351 389.5682,39.805087 395.44608,33.810736 C 401.09111,28.049399 408.08923,23.597369 416.44047,20.454632 C 424.79162,17.31215 433.91392,15.740846 443.80739,15.740713 C 449.27778,15.740846 454.20994,16.046377 458.60386,16.657309 C 462.9976,17.268503 467.05681,18.068705 470.78148,19.057915 C 474.68054,20.163778 478.21598,21.400453 481.3878,22.767944 C 484.5594,24.135687 487.33828,25.40146 489.72445,26.565268 L 489.72445,58.078689 L 485.88348,58.078689 C 484.25386,56.682063 482.20244,55.023464 479.7292,53.102885 C 477.25574,51.182497 474.44776,49.291112 471.30525,47.428724 C 468.10434,45.566537 464.64165,43.995233 460.91717,42.714805 C 457.1925,41.434588 453.20605,40.794427 448.95778,40.794319 C 444.24379,40.794427 439.76266,41.536432 435.51439,43.020337 C 431.26598,44.504452 427.33772,46.963253 423.72959,50.396747 C 420.29594,53.714043 417.51706,58.107877 415.39294,63.578261 C 413.26872,69.048814 412.20663,75.683211 412.20668,83.481474 C 412.20663,91.629045 413.35601,98.438032 415.65482,103.90846 C 417.95353,109.37897 420.84881,113.68551 424.34065,116.82809 C 427.89058,120.02892 431.84794,122.31313 436.21274,123.68073 C 440.57741,125.04837 444.88395,125.73218 449.13237,125.73215 C 453.20605,125.73218 457.23615,125.12111 461.2227,123.89896 C 465.20907,122.67686 468.89,121.01826 472.26549,118.92316 C 475.11702,117.23549 477.76496,115.4314 480.20932,113.51088 C 482.65346,111.59043 484.66124,109.93183 486.23266,108.53508 L 489.72445,108.53508 L 489.72445,139.61203 C 486.46533,141.06695 483.35182,142.43456 480.38391,143.71488 C 477.41578,144.99521 474.30227,146.10094 471.04337,147.03208 C 466.79492,148.25421 462.80846,149.18535 459.08398,149.82552 C 455.35932,150.46568 450.23803,150.78576 443.7201,150.78576 L 443.7201,150.78576 z " />
      <path
         id="text6307"
         style="font-size:14.93034363px;font-style:normal;font-weight:normal;fill:#000000;fill-opacity:1;stroke:none;stroke-width:1px;stroke-linecap:butt;stroke-linejoin:miter;stroke-opacity:1;font-family:Verdana"
         transform="matrix(0.803738,0,0,1.244187,-2.902837,6.773292)"
         d="M 101.86304,188.73551 C 101.863,190.49732 101.45293,192.23887 100.63282,193.96016 C 99.812637,195.68146 98.663418,197.1395 97.185162,198.33428 C 95.565084,199.63032 93.67672,200.64285 91.520066,201.37187 C 89.363354,202.10089 86.766221,202.4654 83.728659,202.4654 C 80.4683,202.4654 77.537033,202.16164 74.93485,201.55412 C 72.332642,200.9466 69.684883,200.04546 66.991564,198.85067 L 66.991564,191.31746 L 67.416826,191.31746 C 69.705134,193.22102 72.34783,194.68918 75.344924,195.72196 C 78.341993,196.75474 81.156819,197.27113 83.789411,197.27113 C 87.515491,197.27113 90.416382,196.57249 92.492093,195.17519 C 94.567745,193.77791 95.605585,191.91486 95.605618,189.58603 C 95.605585,187.58124 95.114509,186.10295 94.132389,185.15116 C 93.150206,184.1994 91.656728,183.46026 89.651951,182.93372 C 88.133133,182.52873 86.487776,182.1946 84.715874,181.93132 C 82.94393,181.66808 81.065691,181.33395 79.081154,180.92892 C 75.071529,180.07841 72.099761,178.62544 70.165841,176.56998 C 68.231906,174.51458 67.264942,171.83644 67.264947,168.53557 C 67.264942,164.74875 68.864736,161.64535 72.064332,159.22537 C 75.263909,156.80547 79.324144,155.5955 84.245049,155.59545 C 87.424364,155.5955 90.340443,155.89926 92.993294,156.50673 C 95.646086,157.11429 97.99515,157.86356 100.04049,158.75454 L 100.04049,165.86249 L 99.61523,165.86249 C 97.893897,164.40449 95.630898,163.19452 92.826227,162.23258 C 90.021496,161.27072 87.150981,160.78977 84.214673,160.78973 C 80.994814,160.78977 78.407807,161.45803 76.453642,162.79453 C 74.499451,164.13111 73.522362,165.8524 73.522373,167.95843 C 73.522362,169.84176 74.008375,171.32005 74.980414,172.3933 C 75.952428,173.46661 77.663599,174.28676 80.113933,174.85375 C 81.409951,175.13728 83.252751,175.48154 85.642338,175.88652 C 88.03188,176.29156 90.056935,176.7067 91.717509,177.13193 C 95.079071,178.02298 97.610389,179.36965 99.311472,181.17192 C 101.01248,182.97424 101.863,185.49544 101.86304,188.73551 L 101.86304,188.73551 z M 145.23976,161.60987 C 147.08252,163.63497 148.495,166.11566 149.47719,169.05196 C 150.4593,171.98832 150.95038,175.31954 150.95042,179.04561 C 150.95038,182.77174 150.44918,186.10802 149.44682,189.05446 C 148.44437,192.00092 147.04202,194.4563 145.23976,196.4206 C 143.37667,198.46591 141.17443,200.00495 138.63301,201.03773 C 136.09154,202.07051 133.19065,202.5869 129.93033,202.5869 C 126.75097,202.5869 123.86021,202.06038 121.25803,201.00736 C 118.65582,199.95433 116.44344,198.42541 114.6209,196.4206 C 112.79834,194.4158 111.39599,191.95536 110.41385,189.03927 C 109.43169,186.1232 108.94061,182.79199 108.94062,179.04561 C 108.94061,175.36004 109.42663,172.05413 110.39866,169.1279 C 111.37068,166.20173 112.78822,163.69572 114.65128,161.60987 C 116.43332,159.62536 118.64569,158.10657 121.2884,157.0535 C 123.93108,156.00051 126.81172,155.474 129.93033,155.47395 C 133.1704,155.474 136.08141,156.00557 138.66339,157.06868 C 141.2453,158.13188 143.43742,159.64561 145.23976,161.60987 L 145.23976,161.60987 z M 144.693,179.04561 C 144.69296,173.17298 143.37667,168.64192 140.74414,165.45242 C 138.11153,162.26299 134.51706,160.66826 129.96071,160.66822 C 125.36381,160.66826 121.75415,162.26299 119.13172,165.45242 C 116.50926,168.64192 115.19803,173.17298 115.19804,179.04561 C 115.19803,184.97905 116.53457,189.52023 119.20766,192.66918 C 121.88072,195.81815 125.46506,197.39263 129.96071,197.39263 C 134.45631,197.39263 138.03559,195.81815 140.69857,192.66918 C 143.36148,189.52023 144.69296,184.97905 144.693,179.04561 L 144.693,179.04561 z M 200.76682,201.64525 L 194.7524,201.64525 L 194.7524,162.67303 L 182.1768,189.19115 L 178.59244,189.19115 L 166.10797,162.67303 L 166.10797,201.64525 L 160.48844,201.64525 L 160.48844,156.4156 L 168.68992,156.4156 L 180.74913,181.59719 L 192.41346,156.4156 L 200.76682,156.4156 L 200.76682,201.64525 z M 242.77662,201.64525 L 212.97791,201.64525 L 212.97791,156.4156 L 242.77662,156.4156 L 242.77662,161.76175 L 218.99233,161.76175 L 218.99233,174.1551 L 242.77662,174.1551 L 242.77662,179.50125 L 218.99233,179.50125 L 218.99233,196.2991 L 242.77662,196.2991 L 242.77662,201.64525 z M 311.63869,201.64525 L 303.8321,201.64525 L 288.70492,183.66274 L 280.23006,183.66274 L 280.23006,201.64525 L 274.21564,201.64525 L 274.21564,156.4156 L 286.88237,156.4156 C 289.61618,156.41565 291.89436,156.59284 293.71694,156.94718 C 295.53946,157.30161 297.17976,157.93444 298.63783,158.84567 C 300.27809,159.87849 301.55894,161.17959 302.48037,162.74897 C 303.40174,164.31842 303.86244,166.30804 303.86247,168.71782 C 303.86244,171.97819 303.04229,174.70696 301.40203,176.90412 C 299.7617,179.10133 297.50376,180.75681 294.62821,181.87057 L 311.63869,201.64525 z M 297.57467,169.14309 C 297.57464,167.84708 297.34682,166.69786 296.89121,165.69543 C 296.43555,164.69306 295.68121,163.8476 294.62821,163.15904 C 293.75741,162.57182 292.72463,162.16174 291.52988,161.92882 C 290.33507,161.69598 288.92766,161.57954 287.30763,161.5795 L 280.23006,161.5795 L 280.23006,178.65073 L 286.30523,178.65073 C 288.20876,178.65075 289.86931,178.48368 291.28687,178.14953 C 292.70438,177.81542 293.90929,177.19271 294.9016,176.28141 C 295.81284,175.43091 296.48617,174.45382 296.92159,173.35014 C 297.35695,172.24651 297.57464,170.84416 297.57467,169.14309 L 297.57467,169.14309 z M 333.41818,201.64525 L 315.55718,201.64525 L 315.55718,197.02812 L 321.48047,197.02812 L 321.48047,161.03273 L 315.55718,161.03273 L 315.55718,156.4156 L 333.41818,156.4156 L 333.41818,161.03273 L 327.49489,161.03273 L 327.49489,197.02812 L 333.41818,197.02812 L 333.41818,201.64525 z M 381.44239,198.3039 C 378.97178,199.43794 376.27339,200.42515 373.34722,201.26555 C 370.42098,202.10595 367.59097,202.52615 364.85717,202.52615 C 361.33355,202.52615 358.10359,202.04013 355.16727,201.06811 C 352.23093,200.09608 349.72999,198.63804 347.66444,196.69398 C 345.57862,194.72969 343.9687,192.27431 342.83468,189.32784 C 341.70064,186.3814 341.13363,182.93374 341.13363,178.98486 C 341.13363,171.75544 343.24475,166.04985 347.467,161.86807 C 351.68923,157.68637 357.48595,155.5955 364.85717,155.59545 C 367.42896,155.5955 370.05647,155.90432 372.73971,156.52192 C 375.42287,157.13961 378.31363,158.18757 381.41201,159.66582 L 381.41201,166.80414 L 380.86525,166.80414 C 380.23744,166.31817 379.32616,165.68027 378.13142,164.89047 C 376.9366,164.10073 375.76207,163.44259 374.60782,162.91604 C 373.2105,162.28831 371.62589,161.76686 369.854,161.35168 C 368.08204,160.93658 366.07218,160.72902 363.82439,160.72897 C 358.76173,160.72902 354.75718,162.35412 351.81074,165.6043 C 348.86427,168.85455 347.39105,173.25398 347.39106,178.80261 C 347.39105,184.65504 348.93009,189.20635 352.00819,192.45655 C 355.08626,195.70678 359.27812,197.33188 364.58379,197.33188 C 366.52782,197.33188 368.46681,197.1395 370.40077,196.75474 C 372.33466,196.36998 374.03064,195.87384 375.48872,195.26632 L 375.48872,184.17913 L 363.36876,184.17913 L 363.36876,178.89373 L 381.44239,178.89373 L 381.44239,198.3039 z M 426.55055,201.64525 L 420.53613,201.64525 L 420.53613,179.50125 L 397.96687,179.50125 L 397.96687,201.64525 L 391.95246,201.64525 L 391.95246,156.4156 L 397.96687,156.4156 L 397.96687,174.1551 L 420.53613,174.1551 L 420.53613,156.4156 L 426.55055,156.4156 L 426.55055,201.64525 z M 470.99042,161.76175 L 454.83047,161.76175 L 454.83047,201.64525 L 448.81605,201.64525 L 448.81605,161.76175 L 432.65609,161.76175 L 432.65609,156.4156 L 470.99042,156.4156 L 470.99042,161.76175 z M 509.99302,188.73551 C 509.99298,190.49732 509.58291,192.23887 508.7628,193.96016 C 507.94261,195.68146 506.79339,197.1395 505.31514,198.33428 C 503.69506,199.63032 501.80669,200.64285 499.65004,201.37187 C 497.49333,202.10089 494.8962,202.4654 491.85863,202.4654 C 488.59827,202.4654 485.66701,202.16164 483.06482,201.55412 C 480.46262,200.9466 477.81486,200.04546 475.12154,198.85067 L 475.12154,191.31746 L 475.5468,191.31746 C 477.83511,193.22102 480.4778,194.68918 483.4749,195.72196 C 486.47197,196.75474 489.28679,197.27113 491.91939,197.27113 C 495.64547,197.27113 498.54636,196.57249 500.62207,195.17519 C 502.69772,193.77791 503.73556,191.91486 503.73559,189.58603 C 503.73556,187.58124 503.24448,186.10295 502.26236,185.15116 C 501.28018,184.1994 499.7867,183.46026 497.78192,182.93372 C 496.26311,182.52873 494.61775,182.1946 492.84585,181.93132 C 491.0739,181.66808 489.19567,181.33395 487.21113,180.92892 C 483.2015,180.07841 480.22974,178.62544 478.29582,176.56998 C 476.36188,174.51458 475.39492,171.83644 475.39492,168.53557 C 475.39492,164.74875 476.99471,161.64535 480.19431,159.22537 C 483.39388,156.80547 487.45412,155.5955 492.37502,155.59545 C 495.55434,155.5955 498.47042,155.89926 501.12327,156.50673 C 503.77606,157.11429 506.12512,157.86356 508.17047,158.75454 L 508.17047,165.86249 L 507.7452,165.86249 C 506.02387,164.40449 503.76087,163.19452 500.9562,162.23258 C 498.15147,161.27072 495.28096,160.78977 492.34465,160.78973 C 489.12479,160.78977 486.53778,161.45803 484.58362,162.79453 C 482.62943,164.13111 481.65234,165.8524 481.65235,167.95843 C 481.65234,169.84176 482.13835,171.32005 483.11039,172.3933 C 484.0824,173.46661 485.79357,174.28676 488.24391,174.85375 C 489.53992,175.13728 491.38272,175.48154 493.77231,175.88652 C 496.16185,176.29156 498.18691,176.7067 499.84748,177.13193 C 503.20905,178.02298 505.74036,179.36965 507.44145,181.17192 C 509.14246,182.97424 509.99298,185.49544 509.99302,188.73551 L 509.99302,188.73551 z M 578.94619,201.64525 L 571.13959,201.64525 L 556.01242,183.66274 L 547.53755,183.66274 L 547.53755,201.64525 L 541.52313,201.64525 L 541.52313,156.4156 L 554.18987,156.4156 C 556.92367,156.41565 559.20186,156.59284 561.02443,156.94718 C 562.84696,157.30161 564.48725,157.93444 565.94532,158.84567 C 567.58558,159.87849 568.86643,161.17959 569.78787,162.74897 C 570.70923,164.31842 571.16993,166.30804 571.16997,168.71782 C 571.16993,171.97819 570.34978,174.70696 568.70952,176.90412 C 567.0692,179.10133 564.81126,180.75681 561.93571,181.87057 L 578.94619,201.64525 z M 564.88217,169.14309 C 564.88214,167.84708 564.65432,166.69786 564.19871,165.69543 C 563.74304,164.69306 562.98871,163.8476 561.93571,163.15904 C 561.06491,162.57182 560.03213,162.16174 558.83737,161.92882 C 557.64256,161.69598 556.23515,161.57954 554.61513,161.5795 L 547.53755,161.5795 L 547.53755,178.65073 L 553.61272,178.65073 C 555.51626,178.65075 557.1768,178.48368 558.59436,178.14953 C 560.01188,177.81542 561.21679,177.19271 562.20909,176.28141 C 563.12034,175.43091 563.79367,174.45382 564.22908,173.35014 C 564.66444,172.24651 564.88214,170.84416 564.88217,169.14309 L 564.88217,169.14309 z M 614.57706,201.64525 L 584.77835,201.64525 L 584.77835,156.4156 L 614.57706,156.4156 L 614.57706,161.76175 L 590.79277,161.76175 L 590.79277,174.1551 L 614.57706,174.1551 L 614.57706,179.50125 L 590.79277,179.50125 L 590.79277,196.2991 L 614.57706,196.2991 L 614.57706,201.64525 z M 657.01215,188.73551 C 657.01211,190.49732 656.60204,192.23887 655.78193,193.96016 C 654.96175,195.68146 653.81253,197.1395 652.33427,198.33428 C 650.71419,199.63032 648.82583,200.64285 646.66917,201.37187 C 644.51246,202.10089 641.91533,202.4654 638.87777,202.4654 C 635.61741,202.4654 632.68614,202.16164 630.08396,201.55412 C 627.48175,200.9466 624.83399,200.04546 622.14067,198.85067 L 622.14067,191.31746 L 622.56593,191.31746 C 624.85424,193.22102 627.49694,194.68918 630.49403,195.72196 C 633.4911,196.75474 636.30593,197.27113 638.93852,197.27113 C 642.6646,197.27113 645.56549,196.57249 647.6412,195.17519 C 649.71685,193.77791 650.75469,191.91486 650.75473,189.58603 C 650.75469,187.58124 650.26362,186.10295 649.2815,185.15116 C 648.29932,184.1994 646.80584,183.46026 644.80106,182.93372 C 643.28224,182.52873 641.63688,182.1946 639.86498,181.93132 C 638.09304,181.66808 636.2148,181.33395 634.23026,180.92892 C 630.22064,180.07841 627.24887,178.62544 625.31495,176.56998 C 623.38102,174.51458 622.41405,171.83644 622.41406,168.53557 C 622.41405,164.74875 624.01384,161.64535 627.21344,159.22537 C 630.41302,156.80547 634.47325,155.5955 639.39416,155.59545 C 642.57347,155.5955 645.48955,155.89926 648.1424,156.50673 C 650.7952,157.11429 653.14426,157.86356 655.1896,158.75454 L 655.1896,165.86249 L 654.76434,165.86249 C 653.04301,164.40449 650.78001,163.19452 647.97534,162.23258 C 645.17061,161.27072 642.30009,160.78977 639.36378,160.78973 C 636.14392,160.78977 633.55692,161.45803 631.60275,162.79453 C 629.64856,164.13111 628.67147,165.8524 628.67148,167.95843 C 628.67147,169.84176 629.15748,171.32005 630.12952,172.3933 C 631.10154,173.46661 632.81271,174.28676 635.26304,174.85375 C 636.55906,175.13728 638.40186,175.48154 640.79145,175.88652 C 643.18099,176.29156 645.20604,176.7067 646.86662,177.13193 C 650.22818,178.02298 652.7595,179.36965 654.46058,181.17192 C 656.16159,182.97424 657.01211,185.49544 657.01215,188.73551 L 657.01215,188.73551 z M 696.47038,201.64525 L 666.67166,201.64525 L 666.67166,156.4156 L 696.47038,156.4156 L 696.47038,161.76175 L 672.68608,161.76175 L 672.68608,174.1551 L 696.47038,174.1551 L 696.47038,179.50125 L 672.68608,179.50125 L 672.68608,196.2991 L 696.47038,196.2991 L 696.47038,201.64525 z M 743.46184,201.64525 L 735.65525,201.64525 L 720.52807,183.66274 L 712.05321,183.66274 L 712.05321,201.64525 L 706.03879,201.64525 L 706.03879,156.4156 L 718.70552,156.4156 C 721.43933,156.41565 723.71751,156.59284 725.54009,156.94718 C 727.36261,157.30161 729.00291,157.93444 730.46098,158.84567 C 732.10124,159.87849 733.38209,161.17959 734.30352,162.74897 C 735.22489,164.31842 735.68559,166.30804 735.68562,168.71782 C 735.68559,171.97819 734.86544,174.70696 733.22518,176.90412 C 731.58485,179.10133 729.32691,180.75681 726.45136,181.87057 L 743.46184,201.64525 z M 729.39782,169.14309 C 729.39779,167.84708 729.16997,166.69786 728.71436,165.69543 C 728.2587,164.69306 727.50437,163.8476 726.45136,163.15904 C 725.58056,162.57182 724.54779,162.16174 723.35303,161.92882 C 722.15822,161.69598 720.75081,161.57954 719.13078,161.5795 L 712.05321,161.5795 L 712.05321,178.65073 L 718.12838,178.65073 C 720.03191,178.65075 721.69246,178.48368 723.11002,178.14953 C 724.52753,177.81542 725.73244,177.19271 726.72475,176.28141 C 727.63599,175.43091 728.30932,174.45382 728.74474,173.35014 C 729.1801,172.24651 729.39779,170.84416 729.39782,169.14309 L 729.39782,169.14309 z M 784.95523,156.4156 L 768.49152,201.64525 L 760.47229,201.64525 L 744.00858,156.4156 L 750.44826,156.4156 L 764.63378,196.20797 L 778.81931,156.4156 L 784.95523,156.4156 z M 821.61887,201.64525 L 791.82016,201.64525 L 791.82016,156.4156 L 821.61887,156.4156 L 821.61887,161.76175 L 797.83458,161.76175 L 797.83458,174.1551 L 821.61887,174.1551 L 821.61887,179.50125 L 797.83458,179.50125 L 797.83458,196.2991 L 821.61887,196.2991 L 821.61887,201.64525 z M 869.40011,179.07599 C 869.40007,183.18687 868.50398,186.91297 866.71185,190.2543 C 864.91963,193.59566 862.53513,196.18773 859.55834,198.03052 C 857.49274,199.30631 855.18924,200.22771 852.64783,200.79472 C 850.10636,201.36174 846.75995,201.64525 842.60861,201.64525 L 831.18729,201.64525 L 831.18729,156.4156 L 842.48711,156.4156 C 846.90171,156.41565 850.41012,156.73459 853.01234,157.37244 C 855.61451,158.01038 857.81675,158.88622 859.61909,159.99995 C 862.69714,161.9238 865.09683,164.48549 866.81816,167.68504 C 868.53942,170.88467 869.40007,174.68164 869.40011,179.07599 L 869.40011,179.07599 z M 863.11231,178.98486 C 863.11227,175.44104 862.49463,172.45408 861.25938,170.02399 C 860.02406,167.59395 858.18126,165.68027 855.73098,164.28295 C 853.9489,163.27046 852.05547,162.56675 850.05069,162.17183 C 848.04586,161.77698 845.64617,161.57954 842.85162,161.5795 L 837.20171,161.5795 L 837.20171,196.48135 L 842.85162,196.48135 C 845.74743,196.48136 848.27368,196.26873 850.43039,195.84346 C 852.58705,195.4182 854.56654,194.62843 856.36887,193.47414 C 858.61665,192.03636 860.30251,190.14294 861.42645,187.79386 C 862.55032,185.44481 863.11227,182.50848 863.11231,178.98486 L 863.11231,178.98486 z " />
    </g>
    <image
       y="679.73737"
       x="875.42859"
       id="image2507"
       height="55"
       width="162"
       sodipodi:absref="/home/rpelisse/Desktop/esme-current/tpbuild/docs/img/logo.jpg"
       xlink:href="logo.jpg" />
  </g>
</svg>
